Coordinates
version=1
nRows=8
nColumns=36
inDegrees=yes

Units are S.I. units (second, meters, Newtons, ...)
If the header above contains a line with 'inDegrees', this indicates whether rotational values are in degrees (yes) or radians (no).

endheader
time	pelvis_tilt	pelvis_list	pelvis_rotation	pelvis_tx	pelvis_ty	pelvis_tz	hip_flexion_r	hip_adduction_r	hip_rotation_r	knee_angle_r	knee_angle_r_beta	ankle_angle_r	subtalar_angle_r	mtp_angle_r	hip_flexion_l	hip_adduction_l	hip_rotation_l	knee_angle_l	knee_angle_l_beta	ankle_angle_l	subtalar_angle_l	mtp_angle_l	lumbar_extension	lumbar_bending	lumbar_rotation	arm_flex_r	arm_add_r	arm_rot_r	elbow_flex_r	pro_sup_r	arm_flex_l	arm_add_l	arm_rot_l	elbow_flex_l	pro_sup_l
      0.00000000	     -0.52704663	     -2.99556931	      2.52638693	     -0.89196956	      1.22917364	     -0.09735694	     -4.00633991	      2.20084793	      0.72500214	      4.03284774	      0.07038647	      6.03676855	     -6.13842633	     -5.30781217	     -3.53887342	     -1.90028083	      2.60792995	      4.60891782	      0.08044079	     12.44426463	     -2.16182139	     -5.30781217	     -7.24361626	      3.66763097	     -0.42081874	      3.22118740	     -7.00096974	     14.30650109	     26.16243575	     78.76002930	      1.95010520	     -4.97343144	     17.55741465	     25.40709432	     69.23803667
      0.00416670	     -3.67839088	     -2.48776731	      2.14878937	     -0.89063471	      1.22537674	     -0.09581009	      0.04929433	      1.63340284	      1.60291474	      5.24728902	      0.09158247	      8.93049558	     -3.50401720	     -5.36635791	      0.36261692	     -0.32787873	      4.21294205	      5.29551631	      0.09242420	     12.20407227	     -1.88859794	     -5.36635791	     -2.86096959	      3.06171870	     -0.26748213	      2.16275702	     -6.45183168	     12.43564036	     25.94921229	     78.91117438	      1.26721558	     -4.37987906	     15.64787183	     24.68275659	     69.30674565
      0.00833330	     -4.43479626	     -1.40543655	      1.85984030	     -0.88929449	      1.22457489	     -0.09508321	      0.42095924	      0.31802490	      0.84985682	      4.39956485	      0.07678689	      9.89640636	     -1.84003074	     -6.32579804	      0.75245940	      0.91955128	      4.01881534	      5.06485302	      0.08839836	     11.77991339	     -2.28997428	     -6.32579804	     -1.77377176	      1.58729977	      0.35484100	      0.91667730	     -4.94162584	      3.63086172	     27.42569892	     87.33771481	      1.00425316	     -4.21551113	     10.63942065	     24.76229205	     76.05881780
      0.01250000	     -4.23387275	     -0.89371863	      1.66909098	     -0.88898455	      1.22539638	     -0.09468015	     -0.18880375	     -0.28694781	      0.76409405	      3.71789618	      0.06488953	     10.38371543	     -0.92166159	     -6.53222697	     -0.18295243	      1.53380749	      4.60710606	      4.14250933	      0.07230043	     11.16776959	     -3.18011238	     -6.53222697	     -1.91183516	      0.86951352	      0.66741674	      0.49353559	     -4.78053753	      3.38523220	     28.18482536	     84.58463522	      0.71908442	     -4.65030547	     10.41240291	     25.46853604	     74.11975515
      0.01666670	     -4.11384283	     -0.69553068	      1.55358068	     -0.88916733	      1.22599858	     -0.09420573	     -0.63821516	     -0.44187671	      0.79366314	      3.08700878	      0.05387847	     10.52177881	     -0.44014787	     -6.58560282	     -0.72151711	      1.81419244	      4.96478739	      3.51004229	      0.06126179	     10.87754295	     -3.49679052	     -6.58560282	     -2.02733048	      0.61161046	      0.93836539	      0.29465262	     -4.78053178	      3.52976166	     28.54122572	     83.97866402	      0.75828359	     -4.88615329	     10.58949343	     25.56841947	     73.74036463
      0.02083330	     -4.37297494	     -0.62245367	      1.54713640	     -0.88762961	      1.22650297	     -0.09361883	     -0.57037469	     -0.45671069	      0.79124063	      2.82165262	      0.04924713	     10.51680948	     -0.08856431	     -6.61801771	     -0.62565343	      1.85247097	      5.12056489	      3.30839733	      0.05774243	     10.90651779	     -3.46833311	     -6.61801771	     -1.60088378	      0.45017112	      1.03668995	     -0.14285417	     -4.76931409	      3.62850737	     29.06800842	     83.45822422	      0.54803664	     -5.08388361	     10.58426699	     26.04842461	     73.39076638
      0.02500000	     -3.66919761	     -0.59873344	      1.47826643	     -0.88675541	      1.22710589	     -0.09300697	     -1.60599525	     -0.41614375	      0.91150496	      2.36821565	      0.04133316	     10.13215798	     -0.13502553	     -6.78037701	     -1.64822764	      1.83465423	      5.79768893	      2.86985407	      0.05008840	     10.19469299	     -4.53025858	     -6.78037701	     -2.53681021	      0.38770616	      1.46588385	     -0.09938937	     -5.13119445	      5.44583187	     29.23078696	     81.96993159	      1.42450715	     -5.16856147	     11.98937222	     25.45004134	     72.44094739
      0.02916670	     -3.47974663	     -0.58484912	      1.36658599	     -0.88680156	      1.22679670	     -0.09281634	     -1.94972212	     -0.38027789	      1.10606605	      2.12137235	      0.03702493	      9.78767595	     -0.34031556	     -6.91031703	     -1.98693256	      1.80398019	      5.88565570	      2.66056082	      0.04643555	      9.99667501	     -4.67975731	     -6.91031703	     -2.77122799	      0.29943307	      1.68854790	     -0.14818775	     -5.12038916	      5.81788385	     29.34354183	     79.82602039	      1.62530139	     -5.20693324	     11.93505926	     25.76580969	     70.99078985
